<mxfile modified="2023-11-25T18:01:23.883Z" host="app.diagrams.net" agent="Mozilla/5.0 (Windows NT 10.0; Win64; x64) AppleWebKit/537.36 (KHTML, like Gecko) Chrome/119.0.0.0 Safari/537.36" etag="RA8oakfZf-RQWWCwfi8o" version="22.1.3" type="github">
  <diagram id="C2fSY1v2SiZeoUbDoYyL" name="Page-1">
    <mxGraphModel dx="1969" dy="882" grid="1" gridSize="10" guides="1" tooltips="1" connect="1" arrows="1" fold="1" page="1" pageScale="1" pageWidth="1169" pageHeight="827" math="0" shadow="0">
      <root>
        <mxCell id="0" />
        <mxCell id="1" parent="0" />
        <mxCell id="3ne1QswCM8ZiEu4GHsYG-31" value="Company Goods Delivery Procedure" style="text;html=1;strokeColor=none;fillColor=none;align=center;verticalAlign=middle;whiteSpace=wrap;rounded=0;fontStyle=1;fontSize=20;fontColor=#4D4D4D;" parent="1" vertex="1">
          <mxGeometry x="189.5" y="50" width="790" height="30" as="geometry" />
        </mxCell>
        <mxCell id="3ne1QswCM8ZiEu4GHsYG-32" value="" style="line;strokeWidth=2;html=1;fontSize=20;fontColor=#4D4D4D;" parent="1" vertex="1">
          <mxGeometry x="103.5" y="80" width="960" height="10" as="geometry" />
        </mxCell>
        <mxCell id="JYK7NFnvmHLZQDQHn-Lk-5" value="&lt;font style=&quot;font-size: 14px;&quot;&gt;&lt;b&gt;Warning&lt;br&gt;&lt;/b&gt;&lt;/font&gt;" style="ellipse;whiteSpace=wrap;html=1;aspect=fixed;strokeWidth=4;fillColor=#fff2cc;strokeColor=#666666;" parent="1" vertex="1">
          <mxGeometry x="420" y="170" width="100" height="100" as="geometry" />
        </mxCell>
        <mxCell id="JYK7NFnvmHLZQDQHn-Lk-13" value="&lt;font style=&quot;font-size: 14px;&quot;&gt;&lt;b&gt;Unlocking&lt;/b&gt;&lt;/font&gt;" style="ellipse;whiteSpace=wrap;html=1;aspect=fixed;strokeWidth=4;fillColor=#fff2cc;strokeColor=#666666;" parent="1" vertex="1">
          <mxGeometry x="920" y="370" width="100" height="100" as="geometry" />
        </mxCell>
        <mxCell id="JYK7NFnvmHLZQDQHn-Lk-15" value="&lt;font style=&quot;font-size: 14px;&quot;&gt;&lt;b&gt;Verifying&lt;/b&gt;&lt;/font&gt;" style="ellipse;whiteSpace=wrap;html=1;aspect=fixed;strokeWidth=4;fillColor=#fff2cc;strokeColor=#666666;" parent="1" vertex="1">
          <mxGeometry x="633.5" y="370" width="100" height="100" as="geometry" />
        </mxCell>
        <mxCell id="JYK7NFnvmHLZQDQHn-Lk-16" value="&lt;font style=&quot;font-size: 14px;&quot;&gt;&lt;b&gt;Stopped&lt;/b&gt;&lt;/font&gt;" style="ellipse;whiteSpace=wrap;html=1;aspect=fixed;strokeWidth=4;fillColor=#fff2cc;strokeColor=#666666;" parent="1" vertex="1">
          <mxGeometry x="360" y="400" width="100" height="100" as="geometry" />
        </mxCell>
        <mxCell id="JYK7NFnvmHLZQDQHn-Lk-33" value="" style="curved=1;endArrow=classic;html=1;rounded=0;exitX=0.5;exitY=0;exitDx=0;exitDy=0;entryX=1;entryY=0.5;entryDx=0;entryDy=0;" parent="1" source="JYK7NFnvmHLZQDQHn-Lk-15" target="JYK7NFnvmHLZQDQHn-Lk-5" edge="1">
          <mxGeometry width="50" height="50" relative="1" as="geometry">
            <mxPoint x="750" y="410" as="sourcePoint" />
            <mxPoint x="800" y="360" as="targetPoint" />
            <Array as="points">
              <mxPoint x="680" y="240" />
            </Array>
          </mxGeometry>
        </mxCell>
        <mxCell id="JYK7NFnvmHLZQDQHn-Lk-34" value="&lt;font style=&quot;font-size: 15px;&quot;&gt;Denied&lt;br&gt;&lt;b&gt;[Fail]&lt;/b&gt;&lt;br&gt;&lt;/font&gt;" style="edgeLabel;html=1;align=center;verticalAlign=middle;resizable=0;points=[];" parent="JYK7NFnvmHLZQDQHn-Lk-33" vertex="1" connectable="0">
          <mxGeometry x="0.0533" y="5" relative="1" as="geometry">
            <mxPoint x="-35" y="10" as="offset" />
          </mxGeometry>
        </mxCell>
        <mxCell id="JYK7NFnvmHLZQDQHn-Lk-35" value="" style="curved=1;endArrow=classic;html=1;rounded=0;exitX=1;exitY=0.5;exitDx=0;exitDy=0;entryX=0;entryY=0.5;entryDx=0;entryDy=0;" parent="1" source="JYK7NFnvmHLZQDQHn-Lk-15" target="JYK7NFnvmHLZQDQHn-Lk-13" edge="1">
          <mxGeometry width="50" height="50" relative="1" as="geometry">
            <mxPoint x="750" y="410" as="sourcePoint" />
            <mxPoint x="800" y="360" as="targetPoint" />
            <Array as="points">
              <mxPoint x="830" y="410" />
            </Array>
          </mxGeometry>
        </mxCell>
        <mxCell id="JYK7NFnvmHLZQDQHn-Lk-37" value="&lt;span style=&quot;font-size: 15px;&quot;&gt;&amp;nbsp;Authorized&lt;br&gt;&lt;b&gt;[Pass]&lt;/b&gt;&lt;br&gt;&lt;/span&gt;" style="edgeLabel;html=1;align=center;verticalAlign=middle;resizable=0;points=[];" parent="JYK7NFnvmHLZQDQHn-Lk-35" vertex="1" connectable="0">
          <mxGeometry x="0.0082" y="2" relative="1" as="geometry">
            <mxPoint y="5" as="offset" />
          </mxGeometry>
        </mxCell>
        <mxCell id="_V2IKP7ejvlJgvTYkyaX-1" value="" style="curved=1;endArrow=classic;html=1;rounded=0;exitX=1;exitY=0.5;exitDx=0;exitDy=0;entryX=0;entryY=0.5;entryDx=0;entryDy=0;" parent="1" source="JYK7NFnvmHLZQDQHn-Lk-16" target="JYK7NFnvmHLZQDQHn-Lk-15" edge="1">
          <mxGeometry width="50" height="50" relative="1" as="geometry">
            <mxPoint x="350" y="414.5" as="sourcePoint" />
            <mxPoint x="485.0000000000002" y="414.5" as="targetPoint" />
            <Array as="points" />
          </mxGeometry>
        </mxCell>
        <mxCell id="_V2IKP7ejvlJgvTYkyaX-2" value="&lt;span style=&quot;font-size: 15px;&quot;&gt;bDetected&lt;br&gt;&lt;b&gt;&amp;nbsp;[Verify]&amp;nbsp;&lt;/b&gt;&lt;br&gt;&lt;/span&gt;" style="edgeLabel;html=1;align=center;verticalAlign=middle;resizable=0;points=[];" parent="_V2IKP7ejvlJgvTYkyaX-1" vertex="1" connectable="0">
          <mxGeometry x="0.0082" y="2" relative="1" as="geometry">
            <mxPoint as="offset" />
          </mxGeometry>
        </mxCell>
        <mxCell id="_V2IKP7ejvlJgvTYkyaX-4" value="" style="curved=1;endArrow=classic;html=1;rounded=0;exitX=0;exitY=0.5;exitDx=0;exitDy=0;entryX=0.408;entryY=0.031;entryDx=0;entryDy=0;entryPerimeter=0;" parent="1" source="JYK7NFnvmHLZQDQHn-Lk-5" target="JYK7NFnvmHLZQDQHn-Lk-16" edge="1">
          <mxGeometry width="50" height="50" relative="1" as="geometry">
            <mxPoint x="495" y="314" as="sourcePoint" />
            <mxPoint x="280" y="160" as="targetPoint" />
            <Array as="points">
              <mxPoint x="360" y="280" />
            </Array>
          </mxGeometry>
        </mxCell>
        <mxCell id="_V2IKP7ejvlJgvTYkyaX-5" value="&lt;font style=&quot;font-size: 15px;&quot;&gt;bFinished&lt;br&gt;&lt;b style=&quot;border-color: var(--border-color);&quot;&gt;[Stop]&lt;/b&gt;&lt;br&gt;&lt;/font&gt;" style="edgeLabel;html=1;align=center;verticalAlign=middle;resizable=0;points=[];" parent="_V2IKP7ejvlJgvTYkyaX-4" vertex="1" connectable="0">
          <mxGeometry x="0.0533" y="5" relative="1" as="geometry">
            <mxPoint x="16" y="12" as="offset" />
          </mxGeometry>
        </mxCell>
        <mxCell id="_V2IKP7ejvlJgvTYkyaX-6" value="" style="curved=1;endArrow=classic;html=1;rounded=0;exitX=0;exitY=1;exitDx=0;exitDy=0;entryX=1;entryY=1;entryDx=0;entryDy=0;" parent="1" source="JYK7NFnvmHLZQDQHn-Lk-13" target="JYK7NFnvmHLZQDQHn-Lk-16" edge="1">
          <mxGeometry width="50" height="50" relative="1" as="geometry">
            <mxPoint x="850" y="460" as="sourcePoint" />
            <mxPoint x="750" y="620" as="targetPoint" />
            <Array as="points">
              <mxPoint x="910" y="520" />
              <mxPoint x="730" y="570" />
              <mxPoint x="500" y="550" />
            </Array>
          </mxGeometry>
        </mxCell>
        <mxCell id="_V2IKP7ejvlJgvTYkyaX-7" value="&lt;font style=&quot;font-size: 15px;&quot;&gt;&amp;nbsp;Unlocked&amp;nbsp;&lt;br&gt;&lt;b&gt;[Stop]&lt;/b&gt;&lt;br&gt;&lt;/font&gt;" style="edgeLabel;html=1;align=center;verticalAlign=middle;resizable=0;points=[];" parent="_V2IKP7ejvlJgvTYkyaX-6" vertex="1" connectable="0">
          <mxGeometry x="0.0533" y="5" relative="1" as="geometry">
            <mxPoint x="5" y="-11" as="offset" />
          </mxGeometry>
        </mxCell>
        <mxCell id="_V2IKP7ejvlJgvTYkyaX-9" value="" style="curved=1;endArrow=classic;html=1;rounded=0;exitX=0.5;exitY=1;exitDx=0;exitDy=0;" parent="1" source="JYK7NFnvmHLZQDQHn-Lk-13" target="cntoVFhqolb4l-lRqXu5-13" edge="1">
          <mxGeometry width="50" height="50" relative="1" as="geometry">
            <mxPoint x="1400" y="400" as="sourcePoint" />
            <mxPoint x="1053.0000000000005" y="273" as="targetPoint" />
            <Array as="points">
              <mxPoint x="930" y="670" />
            </Array>
          </mxGeometry>
        </mxCell>
        <mxCell id="_V2IKP7ejvlJgvTYkyaX-10" value="&lt;font style=&quot;font-size: 15px;&quot;&gt;bTransmitted&lt;br&gt;&lt;/font&gt;" style="edgeLabel;html=1;align=center;verticalAlign=middle;resizable=0;points=[];" parent="_V2IKP7ejvlJgvTYkyaX-9" vertex="1" connectable="0">
          <mxGeometry x="0.0533" y="5" relative="1" as="geometry">
            <mxPoint x="-19" y="-87" as="offset" />
          </mxGeometry>
        </mxCell>
        <mxCell id="_V2IKP7ejvlJgvTYkyaX-13" value="" style="curved=1;endArrow=classic;html=1;rounded=0;exitX=0.5;exitY=1;exitDx=0;exitDy=0;entryX=0;entryY=0;entryDx=0;entryDy=0;" parent="1" source="JYK7NFnvmHLZQDQHn-Lk-5" target="JYK7NFnvmHLZQDQHn-Lk-15" edge="1">
          <mxGeometry width="50" height="50" relative="1" as="geometry">
            <mxPoint x="533.5" y="290" as="sourcePoint" />
            <mxPoint x="728.5" y="290" as="targetPoint" />
            <Array as="points">
              <mxPoint x="500" y="350" />
            </Array>
          </mxGeometry>
        </mxCell>
        <mxCell id="_V2IKP7ejvlJgvTYkyaX-14" value="&lt;span style=&quot;font-size: 15px;&quot;&gt;bDetected&lt;br&gt;&lt;b&gt;[Verify]&lt;/b&gt;&lt;br&gt;&lt;/span&gt;" style="edgeLabel;html=1;align=center;verticalAlign=middle;resizable=0;points=[];" parent="_V2IKP7ejvlJgvTYkyaX-13" vertex="1" connectable="0">
          <mxGeometry x="0.0082" y="2" relative="1" as="geometry">
            <mxPoint x="14" y="-8" as="offset" />
          </mxGeometry>
        </mxCell>
        <mxCell id="_V2IKP7ejvlJgvTYkyaX-22" value="&lt;font style=&quot;font-size: 14px;&quot;&gt;&lt;b&gt;Stopped&lt;/b&gt;&lt;/font&gt;" style="ellipse;whiteSpace=wrap;html=1;aspect=fixed;strokeWidth=4;fillColor=#fff2cc;strokeColor=#666666;" parent="1" vertex="1">
          <mxGeometry x="220" y="1120" width="100" height="100" as="geometry" />
        </mxCell>
        <mxCell id="_V2IKP7ejvlJgvTYkyaX-31" value="" style="curved=1;endArrow=classic;html=1;rounded=0;exitX=0.5;exitY=0;exitDx=0;exitDy=0;entryX=0;entryY=0.5;entryDx=0;entryDy=0;" parent="1" source="_V2IKP7ejvlJgvTYkyaX-43" target="_V2IKP7ejvlJgvTYkyaX-46" edge="1">
          <mxGeometry width="50" height="50" relative="1" as="geometry">
            <mxPoint x="770" y="1200" as="sourcePoint" />
            <mxPoint x="940" y="1181" as="targetPoint" />
            <Array as="points">
              <mxPoint x="639" y="1030" />
            </Array>
          </mxGeometry>
        </mxCell>
        <mxCell id="_V2IKP7ejvlJgvTYkyaX-32" value="&lt;font style=&quot;font-size: 15px;&quot;&gt;Sync Event&lt;br&gt;&lt;b&gt;&amp;nbsp;[Sync]&amp;nbsp;&lt;/b&gt;&lt;br&gt;&lt;/font&gt;" style="edgeLabel;html=1;align=center;verticalAlign=middle;resizable=0;points=[];" parent="_V2IKP7ejvlJgvTYkyaX-31" vertex="1" connectable="0">
          <mxGeometry x="0.0533" y="5" relative="1" as="geometry">
            <mxPoint x="4" y="12" as="offset" />
          </mxGeometry>
        </mxCell>
        <mxCell id="_V2IKP7ejvlJgvTYkyaX-43" value="&lt;span style=&quot;font-size: 14px;&quot;&gt;&lt;b&gt;Parsing&lt;/b&gt;&lt;/span&gt;" style="ellipse;whiteSpace=wrap;html=1;aspect=fixed;strokeWidth=4;fillColor=#fff2cc;strokeColor=#666666;" parent="1" vertex="1">
          <mxGeometry x="553.5" y="1120" width="100" height="100" as="geometry" />
        </mxCell>
        <mxCell id="_V2IKP7ejvlJgvTYkyaX-46" value="&lt;span style=&quot;font-size: 14px;&quot;&gt;&lt;b&gt;Synchorizing&lt;/b&gt;&lt;/span&gt;" style="ellipse;whiteSpace=wrap;html=1;aspect=fixed;strokeWidth=4;fillColor=#fff2cc;strokeColor=#666666;" parent="1" vertex="1">
          <mxGeometry x="790" y="980" width="100" height="100" as="geometry" />
        </mxCell>
        <mxCell id="_V2IKP7ejvlJgvTYkyaX-47" value="&lt;span style=&quot;font-size: 14px;&quot;&gt;&lt;b&gt;Configurating&lt;/b&gt;&lt;/span&gt;" style="ellipse;whiteSpace=wrap;html=1;aspect=fixed;strokeWidth=4;fillColor=#fff2cc;strokeColor=#666666;" parent="1" vertex="1">
          <mxGeometry x="870" y="1160" width="100" height="100" as="geometry" />
        </mxCell>
        <mxCell id="_V2IKP7ejvlJgvTYkyaX-48" value="" style="curved=1;endArrow=classic;html=1;rounded=0;entryX=0;entryY=0;entryDx=0;entryDy=0;exitX=1;exitY=0;exitDx=0;exitDy=0;" parent="1" source="_V2IKP7ejvlJgvTYkyaX-22" target="_V2IKP7ejvlJgvTYkyaX-43" edge="1">
          <mxGeometry width="50" height="50" relative="1" as="geometry">
            <mxPoint x="420" y="1140" as="sourcePoint" />
            <mxPoint x="710" y="1230" as="targetPoint" />
            <Array as="points">
              <mxPoint x="430" y="1080" />
            </Array>
          </mxGeometry>
        </mxCell>
        <mxCell id="_V2IKP7ejvlJgvTYkyaX-49" value="&lt;span style=&quot;font-size: 15px;&quot;&gt;ISR Receive&amp;nbsp;&lt;br&gt;&lt;b&gt;[Receive]&lt;/b&gt;&lt;br&gt;&lt;/span&gt;" style="edgeLabel;html=1;align=center;verticalAlign=middle;resizable=0;points=[];" parent="_V2IKP7ejvlJgvTYkyaX-48" vertex="1" connectable="0">
          <mxGeometry x="0.0082" y="2" relative="1" as="geometry">
            <mxPoint x="6" y="15" as="offset" />
          </mxGeometry>
        </mxCell>
        <mxCell id="_V2IKP7ejvlJgvTYkyaX-52" value="" style="curved=1;endArrow=classic;html=1;rounded=0;exitX=1;exitY=1;exitDx=0;exitDy=0;entryX=0;entryY=0.5;entryDx=0;entryDy=0;" parent="1" source="_V2IKP7ejvlJgvTYkyaX-43" target="_V2IKP7ejvlJgvTYkyaX-47" edge="1">
          <mxGeometry width="50" height="50" relative="1" as="geometry">
            <mxPoint x="649" y="1145" as="sourcePoint" />
            <mxPoint x="770" y="1120" as="targetPoint" />
            <Array as="points">
              <mxPoint x="700" y="1250" />
            </Array>
          </mxGeometry>
        </mxCell>
        <mxCell id="_V2IKP7ejvlJgvTYkyaX-53" value="&lt;font style=&quot;font-size: 15px;&quot;&gt;Config Event&lt;br&gt;&lt;b&gt;&amp;nbsp;[Polling]&amp;nbsp;&lt;/b&gt;&lt;br&gt;&lt;/font&gt;" style="edgeLabel;html=1;align=center;verticalAlign=middle;resizable=0;points=[];" parent="_V2IKP7ejvlJgvTYkyaX-52" vertex="1" connectable="0">
          <mxGeometry x="0.0533" y="5" relative="1" as="geometry">
            <mxPoint x="24" y="-8" as="offset" />
          </mxGeometry>
        </mxCell>
        <mxCell id="_V2IKP7ejvlJgvTYkyaX-54" value="&lt;span style=&quot;font-size: 14px;&quot;&gt;&lt;b&gt;Writing&lt;/b&gt;&lt;/span&gt;" style="ellipse;whiteSpace=wrap;html=1;aspect=fixed;strokeWidth=4;fillColor=#fff2cc;strokeColor=#666666;" parent="1" vertex="1">
          <mxGeometry x="1100" y="1160" width="100" height="100" as="geometry" />
        </mxCell>
        <mxCell id="_V2IKP7ejvlJgvTYkyaX-55" value="" style="curved=1;endArrow=classic;html=1;rounded=0;exitX=1;exitY=0.5;exitDx=0;exitDy=0;entryX=0;entryY=0.5;entryDx=0;entryDy=0;" parent="1" source="_V2IKP7ejvlJgvTYkyaX-47" target="_V2IKP7ejvlJgvTYkyaX-54" edge="1">
          <mxGeometry width="50" height="50" relative="1" as="geometry">
            <mxPoint x="880" y="1241" as="sourcePoint" />
            <mxPoint x="1086" y="1291" as="targetPoint" />
            <Array as="points">
              <mxPoint x="1040" y="1200" />
            </Array>
          </mxGeometry>
        </mxCell>
        <mxCell id="_V2IKP7ejvlJgvTYkyaX-56" value="&lt;font style=&quot;font-size: 15px;&quot;&gt;Detect&lt;br&gt;&lt;b&gt;&amp;nbsp;[Write]&amp;nbsp;&lt;/b&gt;&lt;br&gt;&lt;/font&gt;" style="edgeLabel;html=1;align=center;verticalAlign=middle;resizable=0;points=[];" parent="_V2IKP7ejvlJgvTYkyaX-55" vertex="1" connectable="0">
          <mxGeometry x="0.0533" y="5" relative="1" as="geometry">
            <mxPoint x="-8" y="5" as="offset" />
          </mxGeometry>
        </mxCell>
        <mxCell id="_V2IKP7ejvlJgvTYkyaX-57" value="" style="curved=1;endArrow=classic;html=1;rounded=0;exitX=0.5;exitY=1;exitDx=0;exitDy=0;entryX=0.5;entryY=1;entryDx=0;entryDy=0;" parent="1" source="_V2IKP7ejvlJgvTYkyaX-54" target="_V2IKP7ejvlJgvTYkyaX-43" edge="1">
          <mxGeometry width="50" height="50" relative="1" as="geometry">
            <mxPoint x="753.5" y="1390" as="sourcePoint" />
            <mxPoint x="877.5" y="1490" as="targetPoint" />
            <Array as="points">
              <mxPoint x="1050" y="1300" />
              <mxPoint x="680" y="1300" />
            </Array>
          </mxGeometry>
        </mxCell>
        <mxCell id="_V2IKP7ejvlJgvTYkyaX-58" value="&lt;span style=&quot;font-size: 15px;&quot;&gt;ISR Receive&amp;nbsp;&lt;br&gt;&lt;b&gt;[Receive]&lt;/b&gt;&lt;br&gt;&lt;/span&gt;" style="edgeLabel;html=1;align=center;verticalAlign=middle;resizable=0;points=[];" parent="_V2IKP7ejvlJgvTYkyaX-57" vertex="1" connectable="0">
          <mxGeometry x="0.0082" y="2" relative="1" as="geometry">
            <mxPoint x="-1" y="-7" as="offset" />
          </mxGeometry>
        </mxCell>
        <mxCell id="_V2IKP7ejvlJgvTYkyaX-59" value="" style="curved=1;endArrow=classic;html=1;rounded=0;exitX=0.06;exitY=0.824;exitDx=0;exitDy=0;entryX=1;entryY=1;entryDx=0;entryDy=0;exitPerimeter=0;" parent="1" source="_V2IKP7ejvlJgvTYkyaX-43" target="_V2IKP7ejvlJgvTYkyaX-22" edge="1">
          <mxGeometry width="50" height="50" relative="1" as="geometry">
            <mxPoint x="550" y="1160" as="sourcePoint" />
            <mxPoint x="440" y="1200" as="targetPoint" />
            <Array as="points">
              <mxPoint x="480" y="1260" />
            </Array>
          </mxGeometry>
        </mxCell>
        <mxCell id="_V2IKP7ejvlJgvTYkyaX-60" value="&lt;font style=&quot;font-size: 15px;&quot;&gt;&amp;nbsp;rACKed&amp;nbsp;&amp;nbsp;&lt;br&gt;&lt;/font&gt;" style="edgeLabel;html=1;align=center;verticalAlign=middle;resizable=0;points=[];" parent="_V2IKP7ejvlJgvTYkyaX-59" vertex="1" connectable="0">
          <mxGeometry x="0.0533" y="5" relative="1" as="geometry">
            <mxPoint x="19" y="-20" as="offset" />
          </mxGeometry>
        </mxCell>
        <mxCell id="_V2IKP7ejvlJgvTYkyaX-61" value="" style="curved=1;endArrow=classic;html=1;rounded=0;exitX=0.07;exitY=0.25;exitDx=0;exitDy=0;entryX=1;entryY=0.5;entryDx=0;entryDy=0;exitPerimeter=0;" parent="1" source="_V2IKP7ejvlJgvTYkyaX-47" target="_V2IKP7ejvlJgvTYkyaX-43" edge="1">
          <mxGeometry width="50" height="50" relative="1" as="geometry">
            <mxPoint x="460" y="1025" as="sourcePoint" />
            <mxPoint x="691" y="1061" as="targetPoint" />
            <Array as="points">
              <mxPoint x="770" y="1150" />
            </Array>
          </mxGeometry>
        </mxCell>
        <mxCell id="_V2IKP7ejvlJgvTYkyaX-65" value="" style="curved=1;endArrow=classic;html=1;rounded=0;exitX=0;exitY=1;exitDx=0;exitDy=0;entryX=1;entryY=0;entryDx=0;entryDy=0;" parent="1" source="_V2IKP7ejvlJgvTYkyaX-46" target="_V2IKP7ejvlJgvTYkyaX-43" edge="1">
          <mxGeometry width="50" height="50" relative="1" as="geometry">
            <mxPoint x="1175" y="1265" as="sourcePoint" />
            <mxPoint x="614" y="1230" as="targetPoint" />
            <Array as="points">
              <mxPoint x="750" y="1120" />
            </Array>
          </mxGeometry>
        </mxCell>
        <mxCell id="_V2IKP7ejvlJgvTYkyaX-66" value="&lt;span style=&quot;font-size: 15px;&quot;&gt;ISR Receive&amp;nbsp;&lt;br&gt;&lt;b&gt;[Receive]&lt;/b&gt;&lt;br&gt;&lt;/span&gt;" style="edgeLabel;html=1;align=center;verticalAlign=middle;resizable=0;points=[];" parent="_V2IKP7ejvlJgvTYkyaX-65" vertex="1" connectable="0">
          <mxGeometry x="0.0082" y="2" relative="1" as="geometry">
            <mxPoint x="10" y="-8" as="offset" />
          </mxGeometry>
        </mxCell>
        <mxCell id="CNW68jbFHCAIOtvnS22N-3" value="&lt;span style=&quot;font-size: 15px;&quot;&gt;ISR Receive&amp;nbsp;&lt;br&gt;&lt;b&gt;[Receive]&lt;/b&gt;&lt;br&gt;&lt;/span&gt;" style="edgeLabel;html=1;align=center;verticalAlign=middle;resizable=0;points=[];" parent="1" vertex="1" connectable="0">
          <mxGeometry x="780.002339903524" y="1159.997781293537" as="geometry" />
        </mxCell>
        <mxCell id="pJSeHeQXLC6wZ5o_dz74-39" value="&lt;font style=&quot;font-size: 14px;&quot;&gt;&lt;b&gt;Switching&lt;/b&gt;&lt;/font&gt;" style="ellipse;whiteSpace=wrap;html=1;aspect=fixed;strokeWidth=4;fillColor=#fff2cc;strokeColor=#666666;" parent="1" vertex="1">
          <mxGeometry x="590" y="1500" width="100" height="100" as="geometry" />
        </mxCell>
        <mxCell id="pJSeHeQXLC6wZ5o_dz74-40" value="&lt;font style=&quot;font-size: 14px;&quot;&gt;&lt;b&gt;bSystem FSM&lt;/b&gt;&lt;/font&gt;" style="ellipse;whiteSpace=wrap;html=1;aspect=fixed;strokeWidth=4;fillColor=#fff2cc;strokeColor=#666666;" parent="1" vertex="1">
          <mxGeometry x="360" y="1500" width="100" height="100" as="geometry" />
        </mxCell>
        <mxCell id="pJSeHeQXLC6wZ5o_dz74-41" value="" style="curved=1;endArrow=classic;html=1;rounded=0;exitX=0;exitY=0;exitDx=0;exitDy=0;entryX=1;entryY=0;entryDx=0;entryDy=0;" parent="1" source="pJSeHeQXLC6wZ5o_dz74-39" target="pJSeHeQXLC6wZ5o_dz74-40" edge="1">
          <mxGeometry width="50" height="50" relative="1" as="geometry">
            <mxPoint x="770" y="1470" as="sourcePoint" />
            <mxPoint x="430" y="1480" as="targetPoint" />
            <Array as="points">
              <mxPoint x="530" y="1490" />
            </Array>
          </mxGeometry>
        </mxCell>
        <mxCell id="pJSeHeQXLC6wZ5o_dz74-42" value="&lt;span style=&quot;font-size: 15px;&quot;&gt;&amp;nbsp;Busy&amp;nbsp;&lt;br&gt;&lt;/span&gt;" style="edgeLabel;html=1;align=center;verticalAlign=middle;resizable=0;points=[];" parent="pJSeHeQXLC6wZ5o_dz74-41" vertex="1" connectable="0">
          <mxGeometry x="0.0082" y="2" relative="1" as="geometry">
            <mxPoint x="5" y="7" as="offset" />
          </mxGeometry>
        </mxCell>
        <mxCell id="pJSeHeQXLC6wZ5o_dz74-43" value="" style="curved=1;endArrow=classic;html=1;rounded=0;exitX=1;exitY=1;exitDx=0;exitDy=0;entryX=0;entryY=1;entryDx=0;entryDy=0;" parent="1" source="pJSeHeQXLC6wZ5o_dz74-40" target="pJSeHeQXLC6wZ5o_dz74-39" edge="1">
          <mxGeometry width="50" height="50" relative="1" as="geometry">
            <mxPoint x="370" y="1474.5" as="sourcePoint" />
            <mxPoint x="505.0000000000002" y="1474.5" as="targetPoint" />
            <Array as="points">
              <mxPoint x="520" y="1610" />
            </Array>
          </mxGeometry>
        </mxCell>
        <mxCell id="pJSeHeQXLC6wZ5o_dz74-44" value="&lt;span style=&quot;font-size: 15px;&quot;&gt;&amp;nbsp;ISR Receive&amp;nbsp;&lt;br&gt;&lt;br&gt;&lt;/span&gt;" style="edgeLabel;html=1;align=center;verticalAlign=middle;resizable=0;points=[];" parent="pJSeHeQXLC6wZ5o_dz74-43" vertex="1" connectable="0">
          <mxGeometry x="0.0082" y="2" relative="1" as="geometry">
            <mxPoint x="5" y="-7" as="offset" />
          </mxGeometry>
        </mxCell>
        <mxCell id="pJSeHeQXLC6wZ5o_dz74-45" value="&lt;font style=&quot;font-size: 14px;&quot;&gt;&lt;b&gt;rSystem FSM&lt;/b&gt;&lt;/font&gt;" style="ellipse;whiteSpace=wrap;html=1;aspect=fixed;strokeWidth=4;fillColor=#fff2cc;strokeColor=#666666;" parent="1" vertex="1">
          <mxGeometry x="830" y="1500" width="100" height="100" as="geometry" />
        </mxCell>
        <mxCell id="pJSeHeQXLC6wZ5o_dz74-46" value="" style="curved=1;endArrow=classic;html=1;rounded=0;exitX=1;exitY=0.5;exitDx=0;exitDy=0;entryX=0;entryY=0.5;entryDx=0;entryDy=0;" parent="1" source="pJSeHeQXLC6wZ5o_dz74-39" target="pJSeHeQXLC6wZ5o_dz74-45" edge="1">
          <mxGeometry width="50" height="50" relative="1" as="geometry">
            <mxPoint x="690" y="1565" as="sourcePoint" />
            <mxPoint x="759" y="1440" as="targetPoint" />
            <Array as="points">
              <mxPoint x="760" y="1560" />
            </Array>
          </mxGeometry>
        </mxCell>
        <mxCell id="pJSeHeQXLC6wZ5o_dz74-47" value="&lt;span style=&quot;font-size: 15px;&quot;&gt;Idle&lt;br&gt;&lt;b&gt;[Switch]&amp;nbsp;&lt;/b&gt;&lt;br&gt;&lt;/span&gt;" style="edgeLabel;html=1;align=center;verticalAlign=middle;resizable=0;points=[];" parent="pJSeHeQXLC6wZ5o_dz74-46" vertex="1" connectable="0">
          <mxGeometry x="0.0082" y="2" relative="1" as="geometry">
            <mxPoint x="-1" as="offset" />
          </mxGeometry>
        </mxCell>
        <mxCell id="pJSeHeQXLC6wZ5o_dz74-48" value="" style="curved=1;endArrow=classic;html=1;rounded=0;entryX=0.44;entryY=0.02;entryDx=0;entryDy=0;entryPerimeter=0;exitX=0.5;exitY=0;exitDx=0;exitDy=0;" parent="1" source="pJSeHeQXLC6wZ5o_dz74-45" target="pJSeHeQXLC6wZ5o_dz74-40" edge="1">
          <mxGeometry width="50" height="50" relative="1" as="geometry">
            <mxPoint x="880" y="1490" as="sourcePoint" />
            <mxPoint x="718" y="1270" as="targetPoint" />
            <Array as="points">
              <mxPoint x="830" y="1420" />
              <mxPoint x="420" y="1410" />
            </Array>
          </mxGeometry>
        </mxCell>
        <mxCell id="pJSeHeQXLC6wZ5o_dz74-49" value="&lt;span style=&quot;font-size: 15px;&quot;&gt;eFinished = rFinished / bACKed&amp;nbsp;&lt;br&gt;&lt;b&gt;[Switch]&amp;nbsp;&lt;/b&gt;&lt;br&gt;&lt;/span&gt;" style="edgeLabel;html=1;align=center;verticalAlign=middle;resizable=0;points=[];" parent="pJSeHeQXLC6wZ5o_dz74-48" vertex="1" connectable="0">
          <mxGeometry x="0.0082" y="2" relative="1" as="geometry">
            <mxPoint x="1" y="-2" as="offset" />
          </mxGeometry>
        </mxCell>
        <mxCell id="ZaaMmb7EvRBkDWpAQzVJ-5" value="" style="curved=1;endArrow=classic;html=1;rounded=0;exitX=0.5;exitY=1;exitDx=0;exitDy=0;entryX=0.5;entryY=1;entryDx=0;entryDy=0;" parent="1" source="pJSeHeQXLC6wZ5o_dz74-40" target="pJSeHeQXLC6wZ5o_dz74-45" edge="1">
          <mxGeometry width="50" height="50" relative="1" as="geometry">
            <mxPoint x="700" y="1560" as="sourcePoint" />
            <mxPoint x="840" y="1560" as="targetPoint" />
            <Array as="points">
              <mxPoint x="430" y="1700" />
              <mxPoint x="840" y="1700" />
            </Array>
          </mxGeometry>
        </mxCell>
        <mxCell id="ZaaMmb7EvRBkDWpAQzVJ-6" value="&lt;span style=&quot;font-size: 15px;&quot;&gt;bTransmitted&lt;br&gt;&lt;b&gt;[Switch]&amp;nbsp;&lt;/b&gt;&lt;br&gt;&lt;/span&gt;" style="edgeLabel;html=1;align=center;verticalAlign=middle;resizable=0;points=[];" parent="ZaaMmb7EvRBkDWpAQzVJ-5" vertex="1" connectable="0">
          <mxGeometry x="0.0082" y="2" relative="1" as="geometry">
            <mxPoint x="-1" as="offset" />
          </mxGeometry>
        </mxCell>
        <mxCell id="cntoVFhqolb4l-lRqXu5-1" value="" style="curved=1;endArrow=classic;html=1;rounded=0;exitX=0.06;exitY=0.24;exitDx=0;exitDy=0;entryX=1;entryY=0;entryDx=0;entryDy=0;exitPerimeter=0;" edge="1" parent="1" source="JYK7NFnvmHLZQDQHn-Lk-13" target="JYK7NFnvmHLZQDQHn-Lk-15">
          <mxGeometry width="50" height="50" relative="1" as="geometry">
            <mxPoint x="900" y="635" as="sourcePoint" />
            <mxPoint x="1074" y="605" as="targetPoint" />
            <Array as="points">
              <mxPoint x="920" y="340" />
              <mxPoint x="730" y="320" />
            </Array>
          </mxGeometry>
        </mxCell>
        <mxCell id="cntoVFhqolb4l-lRqXu5-2" value="&lt;span style=&quot;font-size: 15px;&quot;&gt;bDetected&lt;br&gt;&lt;b&gt;&amp;nbsp;[Verify]&amp;nbsp;&lt;/b&gt;&lt;br&gt;&lt;/span&gt;" style="edgeLabel;html=1;align=center;verticalAlign=middle;resizable=0;points=[];" vertex="1" connectable="0" parent="cntoVFhqolb4l-lRqXu5-1">
          <mxGeometry x="0.0082" y="2" relative="1" as="geometry">
            <mxPoint as="offset" />
          </mxGeometry>
        </mxCell>
        <mxCell id="cntoVFhqolb4l-lRqXu5-4" value="" style="curved=1;endArrow=classic;html=1;rounded=0;exitX=0;exitY=0.5;exitDx=0;exitDy=0;entryX=0;entryY=1;entryDx=0;entryDy=0;" edge="1" parent="1">
          <mxGeometry width="50" height="50" relative="1" as="geometry">
            <mxPoint x="360" y="1560" as="sourcePoint" />
            <mxPoint x="375" y="1585" as="targetPoint" />
            <Array as="points">
              <mxPoint x="240" y="1610" />
              <mxPoint x="290" y="1680" />
            </Array>
          </mxGeometry>
        </mxCell>
        <mxCell id="cntoVFhqolb4l-lRqXu5-5" value="&lt;font style=&quot;font-size: 15px;&quot;&gt;eFinished&lt;br&gt;&lt;b style=&quot;border-color: var(--border-color);&quot;&gt;[Polling]&lt;/b&gt;&lt;br&gt;&lt;/font&gt;" style="edgeLabel;html=1;align=center;verticalAlign=middle;resizable=0;points=[];" vertex="1" connectable="0" parent="cntoVFhqolb4l-lRqXu5-4">
          <mxGeometry x="0.0533" y="5" relative="1" as="geometry">
            <mxPoint x="-4" y="-29" as="offset" />
          </mxGeometry>
        </mxCell>
        <mxCell id="cntoVFhqolb4l-lRqXu5-13" value="&lt;font style=&quot;font-size: 14px;&quot;&gt;&lt;b&gt;rSystem FSM&lt;/b&gt;&lt;/font&gt;" style="ellipse;whiteSpace=wrap;html=1;aspect=fixed;strokeWidth=4;fillColor=#fff2cc;strokeColor=#666666;" vertex="1" parent="1">
          <mxGeometry x="653.5" y="640" width="100" height="100" as="geometry" />
        </mxCell>
        <mxCell id="cntoVFhqolb4l-lRqXu5-14" value="" style="curved=1;endArrow=classic;html=1;rounded=0;exitX=0;exitY=0.5;exitDx=0;exitDy=0;entryX=0.5;entryY=1;entryDx=0;entryDy=0;" edge="1" parent="1" source="cntoVFhqolb4l-lRqXu5-13" target="JYK7NFnvmHLZQDQHn-Lk-16">
          <mxGeometry width="50" height="50" relative="1" as="geometry">
            <mxPoint x="527" y="480" as="sourcePoint" />
            <mxPoint x="290" y="735" as="targetPoint" />
            <Array as="points">
              <mxPoint x="460" y="690" />
            </Array>
          </mxGeometry>
        </mxCell>
        <mxCell id="cntoVFhqolb4l-lRqXu5-15" value="&lt;font style=&quot;font-size: 15px;&quot;&gt;bACKed&lt;br&gt;&lt;/font&gt;" style="edgeLabel;html=1;align=center;verticalAlign=middle;resizable=0;points=[];" vertex="1" connectable="0" parent="cntoVFhqolb4l-lRqXu5-14">
          <mxGeometry x="0.0533" y="5" relative="1" as="geometry">
            <mxPoint x="38" y="-39" as="offset" />
          </mxGeometry>
        </mxCell>
        <mxCell id="cntoVFhqolb4l-lRqXu5-123" value="&lt;font style=&quot;font-size: 14px;&quot;&gt;&lt;b&gt;Warning&lt;br&gt;&lt;/b&gt;&lt;/font&gt;" style="ellipse;whiteSpace=wrap;html=1;aspect=fixed;strokeWidth=4;fillColor=#fff2cc;strokeColor=#666666;" vertex="1" parent="1">
          <mxGeometry x="1460" y="190" width="100" height="100" as="geometry" />
        </mxCell>
        <mxCell id="cntoVFhqolb4l-lRqXu5-124" value="&lt;font style=&quot;font-size: 14px;&quot;&gt;&lt;b&gt;Unlocking&lt;/b&gt;&lt;/font&gt;" style="ellipse;whiteSpace=wrap;html=1;aspect=fixed;strokeWidth=4;fillColor=#fff2cc;strokeColor=#666666;" vertex="1" parent="1">
          <mxGeometry x="1960" y="390" width="100" height="100" as="geometry" />
        </mxCell>
        <mxCell id="cntoVFhqolb4l-lRqXu5-125" value="&lt;font style=&quot;font-size: 14px;&quot;&gt;&lt;b&gt;Verifying&lt;/b&gt;&lt;/font&gt;" style="ellipse;whiteSpace=wrap;html=1;aspect=fixed;strokeWidth=4;fillColor=#fff2cc;strokeColor=#666666;" vertex="1" parent="1">
          <mxGeometry x="1673.5" y="390" width="100" height="100" as="geometry" />
        </mxCell>
        <mxCell id="cntoVFhqolb4l-lRqXu5-126" value="&lt;font style=&quot;font-size: 14px;&quot;&gt;&lt;b&gt;Stopped&lt;/b&gt;&lt;/font&gt;" style="ellipse;whiteSpace=wrap;html=1;aspect=fixed;strokeWidth=4;fillColor=#fff2cc;strokeColor=#666666;" vertex="1" parent="1">
          <mxGeometry x="1400" y="420" width="100" height="100" as="geometry" />
        </mxCell>
        <mxCell id="cntoVFhqolb4l-lRqXu5-127" value="" style="curved=1;endArrow=classic;html=1;rounded=0;exitX=0.5;exitY=0;exitDx=0;exitDy=0;entryX=1;entryY=0.5;entryDx=0;entryDy=0;" edge="1" parent="1" source="cntoVFhqolb4l-lRqXu5-125" target="cntoVFhqolb4l-lRqXu5-123">
          <mxGeometry width="50" height="50" relative="1" as="geometry">
            <mxPoint x="1790" y="430" as="sourcePoint" />
            <mxPoint x="1840" y="380" as="targetPoint" />
            <Array as="points">
              <mxPoint x="1720" y="260" />
            </Array>
          </mxGeometry>
        </mxCell>
        <mxCell id="cntoVFhqolb4l-lRqXu5-128" value="&lt;font style=&quot;font-size: 15px;&quot;&gt;Denied&lt;br&gt;&lt;b&gt;[Fail]&lt;/b&gt;&lt;br&gt;&lt;/font&gt;" style="edgeLabel;html=1;align=center;verticalAlign=middle;resizable=0;points=[];" vertex="1" connectable="0" parent="cntoVFhqolb4l-lRqXu5-127">
          <mxGeometry x="0.0533" y="5" relative="1" as="geometry">
            <mxPoint x="-35" y="10" as="offset" />
          </mxGeometry>
        </mxCell>
        <mxCell id="cntoVFhqolb4l-lRqXu5-129" value="" style="curved=1;endArrow=classic;html=1;rounded=0;exitX=1;exitY=0.5;exitDx=0;exitDy=0;entryX=0;entryY=0.5;entryDx=0;entryDy=0;" edge="1" parent="1" source="cntoVFhqolb4l-lRqXu5-125" target="cntoVFhqolb4l-lRqXu5-124">
          <mxGeometry width="50" height="50" relative="1" as="geometry">
            <mxPoint x="1790" y="430" as="sourcePoint" />
            <mxPoint x="1840" y="380" as="targetPoint" />
            <Array as="points">
              <mxPoint x="1870" y="430" />
            </Array>
          </mxGeometry>
        </mxCell>
        <mxCell id="cntoVFhqolb4l-lRqXu5-130" value="&lt;span style=&quot;font-size: 15px;&quot;&gt;&amp;nbsp;Authorized&lt;br&gt;&lt;b&gt;[Pass]&lt;/b&gt;&lt;br&gt;&lt;/span&gt;" style="edgeLabel;html=1;align=center;verticalAlign=middle;resizable=0;points=[];" vertex="1" connectable="0" parent="cntoVFhqolb4l-lRqXu5-129">
          <mxGeometry x="0.0082" y="2" relative="1" as="geometry">
            <mxPoint y="5" as="offset" />
          </mxGeometry>
        </mxCell>
        <mxCell id="cntoVFhqolb4l-lRqXu5-131" value="" style="curved=1;endArrow=classic;html=1;rounded=0;exitX=1;exitY=0.5;exitDx=0;exitDy=0;entryX=0;entryY=0.5;entryDx=0;entryDy=0;" edge="1" parent="1" source="cntoVFhqolb4l-lRqXu5-126" target="cntoVFhqolb4l-lRqXu5-125">
          <mxGeometry width="50" height="50" relative="1" as="geometry">
            <mxPoint x="1390" y="434.5" as="sourcePoint" />
            <mxPoint x="1525.0000000000002" y="434.5" as="targetPoint" />
            <Array as="points" />
          </mxGeometry>
        </mxCell>
        <mxCell id="cntoVFhqolb4l-lRqXu5-132" value="&lt;span style=&quot;font-size: 15px;&quot;&gt;bDetected&lt;br&gt;&lt;b&gt;&amp;nbsp;[Verify]&amp;nbsp;&lt;/b&gt;&lt;br&gt;&lt;/span&gt;" style="edgeLabel;html=1;align=center;verticalAlign=middle;resizable=0;points=[];" vertex="1" connectable="0" parent="cntoVFhqolb4l-lRqXu5-131">
          <mxGeometry x="0.0082" y="2" relative="1" as="geometry">
            <mxPoint as="offset" />
          </mxGeometry>
        </mxCell>
        <mxCell id="cntoVFhqolb4l-lRqXu5-133" value="" style="curved=1;endArrow=classic;html=1;rounded=0;exitX=0;exitY=0.5;exitDx=0;exitDy=0;entryX=0.408;entryY=0.031;entryDx=0;entryDy=0;entryPerimeter=0;" edge="1" parent="1" source="cntoVFhqolb4l-lRqXu5-123" target="cntoVFhqolb4l-lRqXu5-126">
          <mxGeometry width="50" height="50" relative="1" as="geometry">
            <mxPoint x="1535" y="334" as="sourcePoint" />
            <mxPoint x="1320" y="180" as="targetPoint" />
            <Array as="points">
              <mxPoint x="1400" y="300" />
            </Array>
          </mxGeometry>
        </mxCell>
        <mxCell id="cntoVFhqolb4l-lRqXu5-134" value="&lt;font style=&quot;font-size: 15px;&quot;&gt;bFinished&lt;br&gt;&lt;b style=&quot;border-color: var(--border-color);&quot;&gt;[Stop]&lt;/b&gt;&lt;br&gt;&lt;/font&gt;" style="edgeLabel;html=1;align=center;verticalAlign=middle;resizable=0;points=[];" vertex="1" connectable="0" parent="cntoVFhqolb4l-lRqXu5-133">
          <mxGeometry x="0.0533" y="5" relative="1" as="geometry">
            <mxPoint x="16" y="12" as="offset" />
          </mxGeometry>
        </mxCell>
        <mxCell id="cntoVFhqolb4l-lRqXu5-135" value="" style="curved=1;endArrow=classic;html=1;rounded=0;exitX=0;exitY=1;exitDx=0;exitDy=0;entryX=1;entryY=1;entryDx=0;entryDy=0;" edge="1" parent="1" source="cntoVFhqolb4l-lRqXu5-124" target="cntoVFhqolb4l-lRqXu5-126">
          <mxGeometry width="50" height="50" relative="1" as="geometry">
            <mxPoint x="1890" y="480" as="sourcePoint" />
            <mxPoint x="1790" y="640" as="targetPoint" />
            <Array as="points">
              <mxPoint x="1950" y="540" />
              <mxPoint x="1770" y="590" />
              <mxPoint x="1540" y="570" />
            </Array>
          </mxGeometry>
        </mxCell>
        <mxCell id="cntoVFhqolb4l-lRqXu5-136" value="&lt;font style=&quot;font-size: 15px;&quot;&gt;&amp;nbsp;Unlocked&amp;nbsp;&lt;br&gt;&lt;b&gt;[Stop]&lt;/b&gt;&lt;br&gt;&lt;/font&gt;" style="edgeLabel;html=1;align=center;verticalAlign=middle;resizable=0;points=[];" vertex="1" connectable="0" parent="cntoVFhqolb4l-lRqXu5-135">
          <mxGeometry x="0.0533" y="5" relative="1" as="geometry">
            <mxPoint x="5" y="-11" as="offset" />
          </mxGeometry>
        </mxCell>
        <mxCell id="cntoVFhqolb4l-lRqXu5-137" value="" style="curved=1;endArrow=classic;html=1;rounded=0;exitX=0.5;exitY=1;exitDx=0;exitDy=0;entryX=0;entryY=0;entryDx=0;entryDy=0;" edge="1" parent="1" source="cntoVFhqolb4l-lRqXu5-124" target="cntoVFhqolb4l-lRqXu5-170">
          <mxGeometry width="50" height="50" relative="1" as="geometry">
            <mxPoint x="2440" y="420" as="sourcePoint" />
            <mxPoint x="2160" y="590" as="targetPoint" />
            <Array as="points">
              <mxPoint x="1930" y="650" />
            </Array>
          </mxGeometry>
        </mxCell>
        <mxCell id="cntoVFhqolb4l-lRqXu5-138" value="&lt;font style=&quot;font-size: 15px;&quot;&gt;Transmitted&lt;br&gt;&lt;/font&gt;" style="edgeLabel;html=1;align=center;verticalAlign=middle;resizable=0;points=[];" vertex="1" connectable="0" parent="cntoVFhqolb4l-lRqXu5-137">
          <mxGeometry x="0.0533" y="5" relative="1" as="geometry">
            <mxPoint x="3" y="-8" as="offset" />
          </mxGeometry>
        </mxCell>
        <mxCell id="cntoVFhqolb4l-lRqXu5-139" value="" style="curved=1;endArrow=classic;html=1;rounded=0;exitX=0.5;exitY=1;exitDx=0;exitDy=0;entryX=0;entryY=0;entryDx=0;entryDy=0;" edge="1" parent="1" source="cntoVFhqolb4l-lRqXu5-123" target="cntoVFhqolb4l-lRqXu5-125">
          <mxGeometry width="50" height="50" relative="1" as="geometry">
            <mxPoint x="1573.5" y="310" as="sourcePoint" />
            <mxPoint x="1768.5" y="310" as="targetPoint" />
            <Array as="points">
              <mxPoint x="1540" y="370" />
            </Array>
          </mxGeometry>
        </mxCell>
        <mxCell id="cntoVFhqolb4l-lRqXu5-140" value="&lt;span style=&quot;font-size: 15px;&quot;&gt;bDetected&lt;br&gt;&lt;b&gt;[Verify]&lt;/b&gt;&lt;br&gt;&lt;/span&gt;" style="edgeLabel;html=1;align=center;verticalAlign=middle;resizable=0;points=[];" vertex="1" connectable="0" parent="cntoVFhqolb4l-lRqXu5-139">
          <mxGeometry x="0.0082" y="2" relative="1" as="geometry">
            <mxPoint x="14" y="-8" as="offset" />
          </mxGeometry>
        </mxCell>
        <mxCell id="cntoVFhqolb4l-lRqXu5-144" value="" style="curved=1;endArrow=classic;html=1;rounded=0;entryX=0;entryY=1;entryDx=0;entryDy=0;exitX=0.051;exitY=0.698;exitDx=0;exitDy=0;exitPerimeter=0;" edge="1" parent="1" source="cntoVFhqolb4l-lRqXu5-170" target="cntoVFhqolb4l-lRqXu5-126">
          <mxGeometry width="50" height="50" relative="1" as="geometry">
            <mxPoint x="1330" y="610" as="sourcePoint" />
            <mxPoint x="1330" y="755" as="targetPoint" />
            <Array as="points">
              <mxPoint x="1470" y="900" />
            </Array>
          </mxGeometry>
        </mxCell>
        <mxCell id="cntoVFhqolb4l-lRqXu5-145" value="&lt;font style=&quot;font-size: 15px;&quot;&gt;finish ACKed&lt;br&gt;&lt;/font&gt;" style="edgeLabel;html=1;align=center;verticalAlign=middle;resizable=0;points=[];" vertex="1" connectable="0" parent="cntoVFhqolb4l-lRqXu5-144">
          <mxGeometry x="0.0533" y="5" relative="1" as="geometry">
            <mxPoint x="86" y="-134" as="offset" />
          </mxGeometry>
        </mxCell>
        <mxCell id="cntoVFhqolb4l-lRqXu5-168" value="" style="curved=1;endArrow=classic;html=1;rounded=0;exitX=0.5;exitY=0;exitDx=0;exitDy=0;entryX=0;entryY=0.5;entryDx=0;entryDy=0;" edge="1" parent="1" source="cntoVFhqolb4l-lRqXu5-170" target="cntoVFhqolb4l-lRqXu5-171">
          <mxGeometry width="50" height="50" relative="1" as="geometry">
            <mxPoint x="2116.5" y="800" as="sourcePoint" />
            <mxPoint x="2286.5" y="781" as="targetPoint" />
            <Array as="points">
              <mxPoint x="1985.5" y="630" />
            </Array>
          </mxGeometry>
        </mxCell>
        <mxCell id="cntoVFhqolb4l-lRqXu5-169" value="&lt;font style=&quot;font-size: 15px;&quot;&gt;Sync Event&lt;br&gt;&lt;b&gt;&amp;nbsp;[Sync]&amp;nbsp;&lt;/b&gt;&lt;br&gt;&lt;/font&gt;" style="edgeLabel;html=1;align=center;verticalAlign=middle;resizable=0;points=[];" vertex="1" connectable="0" parent="cntoVFhqolb4l-lRqXu5-168">
          <mxGeometry x="0.0533" y="5" relative="1" as="geometry">
            <mxPoint x="4" y="12" as="offset" />
          </mxGeometry>
        </mxCell>
        <mxCell id="cntoVFhqolb4l-lRqXu5-170" value="&lt;span style=&quot;font-size: 14px;&quot;&gt;&lt;b&gt;Parsing&lt;/b&gt;&lt;/span&gt;" style="ellipse;whiteSpace=wrap;html=1;aspect=fixed;strokeWidth=4;fillColor=#fff2cc;strokeColor=#666666;" vertex="1" parent="1">
          <mxGeometry x="1900" y="720" width="100" height="100" as="geometry" />
        </mxCell>
        <mxCell id="cntoVFhqolb4l-lRqXu5-171" value="&lt;span style=&quot;font-size: 14px;&quot;&gt;&lt;b&gt;Synchorizing&lt;/b&gt;&lt;/span&gt;" style="ellipse;whiteSpace=wrap;html=1;aspect=fixed;strokeWidth=4;fillColor=#fff2cc;strokeColor=#666666;" vertex="1" parent="1">
          <mxGeometry x="2136.5" y="580" width="100" height="100" as="geometry" />
        </mxCell>
        <mxCell id="cntoVFhqolb4l-lRqXu5-172" value="&lt;span style=&quot;font-size: 14px;&quot;&gt;&lt;b&gt;Configurating&lt;/b&gt;&lt;/span&gt;" style="ellipse;whiteSpace=wrap;html=1;aspect=fixed;strokeWidth=4;fillColor=#fff2cc;strokeColor=#666666;" vertex="1" parent="1">
          <mxGeometry x="2216.5" y="760" width="100" height="100" as="geometry" />
        </mxCell>
        <mxCell id="cntoVFhqolb4l-lRqXu5-175" value="" style="curved=1;endArrow=classic;html=1;rounded=0;exitX=1;exitY=1;exitDx=0;exitDy=0;entryX=0;entryY=0.5;entryDx=0;entryDy=0;" edge="1" parent="1" source="cntoVFhqolb4l-lRqXu5-170" target="cntoVFhqolb4l-lRqXu5-172">
          <mxGeometry width="50" height="50" relative="1" as="geometry">
            <mxPoint x="1995.5" y="745" as="sourcePoint" />
            <mxPoint x="2116.5" y="720" as="targetPoint" />
            <Array as="points">
              <mxPoint x="2046.5" y="850" />
            </Array>
          </mxGeometry>
        </mxCell>
        <mxCell id="cntoVFhqolb4l-lRqXu5-176" value="&lt;font style=&quot;font-size: 15px;&quot;&gt;Config Event&lt;br&gt;&lt;b&gt;&amp;nbsp;[Polling]&amp;nbsp;&lt;/b&gt;&lt;br&gt;&lt;/font&gt;" style="edgeLabel;html=1;align=center;verticalAlign=middle;resizable=0;points=[];" vertex="1" connectable="0" parent="cntoVFhqolb4l-lRqXu5-175">
          <mxGeometry x="0.0533" y="5" relative="1" as="geometry">
            <mxPoint x="24" y="-8" as="offset" />
          </mxGeometry>
        </mxCell>
        <mxCell id="cntoVFhqolb4l-lRqXu5-177" value="&lt;span style=&quot;font-size: 14px;&quot;&gt;&lt;b&gt;Writing&lt;/b&gt;&lt;/span&gt;" style="ellipse;whiteSpace=wrap;html=1;aspect=fixed;strokeWidth=4;fillColor=#fff2cc;strokeColor=#666666;" vertex="1" parent="1">
          <mxGeometry x="2446.5" y="760" width="100" height="100" as="geometry" />
        </mxCell>
        <mxCell id="cntoVFhqolb4l-lRqXu5-178" value="" style="curved=1;endArrow=classic;html=1;rounded=0;exitX=1;exitY=0.5;exitDx=0;exitDy=0;entryX=0;entryY=0.5;entryDx=0;entryDy=0;" edge="1" parent="1" source="cntoVFhqolb4l-lRqXu5-172" target="cntoVFhqolb4l-lRqXu5-177">
          <mxGeometry width="50" height="50" relative="1" as="geometry">
            <mxPoint x="2226.5" y="841" as="sourcePoint" />
            <mxPoint x="2432.5" y="891" as="targetPoint" />
            <Array as="points">
              <mxPoint x="2386.5" y="800" />
            </Array>
          </mxGeometry>
        </mxCell>
        <mxCell id="cntoVFhqolb4l-lRqXu5-179" value="&lt;font style=&quot;font-size: 15px;&quot;&gt;Detect&lt;br&gt;&lt;b&gt;&amp;nbsp;[Write]&amp;nbsp;&lt;/b&gt;&lt;br&gt;&lt;/font&gt;" style="edgeLabel;html=1;align=center;verticalAlign=middle;resizable=0;points=[];" vertex="1" connectable="0" parent="cntoVFhqolb4l-lRqXu5-178">
          <mxGeometry x="0.0533" y="5" relative="1" as="geometry">
            <mxPoint x="-8" y="5" as="offset" />
          </mxGeometry>
        </mxCell>
        <mxCell id="cntoVFhqolb4l-lRqXu5-180" value="" style="curved=1;endArrow=classic;html=1;rounded=0;exitX=0.5;exitY=1;exitDx=0;exitDy=0;entryX=0.5;entryY=1;entryDx=0;entryDy=0;" edge="1" parent="1" source="cntoVFhqolb4l-lRqXu5-177" target="cntoVFhqolb4l-lRqXu5-170">
          <mxGeometry width="50" height="50" relative="1" as="geometry">
            <mxPoint x="2100" y="990" as="sourcePoint" />
            <mxPoint x="2224" y="1090" as="targetPoint" />
            <Array as="points">
              <mxPoint x="2396.5" y="900" />
              <mxPoint x="2026.5" y="900" />
            </Array>
          </mxGeometry>
        </mxCell>
        <mxCell id="cntoVFhqolb4l-lRqXu5-181" value="&lt;span style=&quot;font-size: 15px;&quot;&gt;ISR Receive&amp;nbsp;&lt;br&gt;&lt;b&gt;[Receive]&lt;/b&gt;&lt;br&gt;&lt;/span&gt;" style="edgeLabel;html=1;align=center;verticalAlign=middle;resizable=0;points=[];" vertex="1" connectable="0" parent="cntoVFhqolb4l-lRqXu5-180">
          <mxGeometry x="0.0082" y="2" relative="1" as="geometry">
            <mxPoint x="-1" y="-7" as="offset" />
          </mxGeometry>
        </mxCell>
        <mxCell id="cntoVFhqolb4l-lRqXu5-184" value="" style="curved=1;endArrow=classic;html=1;rounded=0;exitX=0.07;exitY=0.25;exitDx=0;exitDy=0;entryX=1;entryY=0.5;entryDx=0;entryDy=0;exitPerimeter=0;" edge="1" parent="1" source="cntoVFhqolb4l-lRqXu5-172" target="cntoVFhqolb4l-lRqXu5-170">
          <mxGeometry width="50" height="50" relative="1" as="geometry">
            <mxPoint x="1806.5" y="625" as="sourcePoint" />
            <mxPoint x="2037.5" y="661" as="targetPoint" />
            <Array as="points">
              <mxPoint x="2116.5" y="750" />
            </Array>
          </mxGeometry>
        </mxCell>
        <mxCell id="cntoVFhqolb4l-lRqXu5-185" value="" style="curved=1;endArrow=classic;html=1;rounded=0;exitX=0;exitY=1;exitDx=0;exitDy=0;entryX=1;entryY=0;entryDx=0;entryDy=0;" edge="1" parent="1" source="cntoVFhqolb4l-lRqXu5-171" target="cntoVFhqolb4l-lRqXu5-170">
          <mxGeometry width="50" height="50" relative="1" as="geometry">
            <mxPoint x="2521.5" y="865" as="sourcePoint" />
            <mxPoint x="1960.5" y="830" as="targetPoint" />
            <Array as="points">
              <mxPoint x="2096.5" y="720" />
            </Array>
          </mxGeometry>
        </mxCell>
        <mxCell id="cntoVFhqolb4l-lRqXu5-186" value="&lt;span style=&quot;font-size: 15px;&quot;&gt;ISR Receive&amp;nbsp;&lt;br&gt;&lt;b&gt;[Receive]&lt;/b&gt;&lt;br&gt;&lt;/span&gt;" style="edgeLabel;html=1;align=center;verticalAlign=middle;resizable=0;points=[];" vertex="1" connectable="0" parent="cntoVFhqolb4l-lRqXu5-185">
          <mxGeometry x="0.0082" y="2" relative="1" as="geometry">
            <mxPoint x="10" y="-8" as="offset" />
          </mxGeometry>
        </mxCell>
        <mxCell id="cntoVFhqolb4l-lRqXu5-187" value="&lt;span style=&quot;font-size: 15px;&quot;&gt;ISR Receive&amp;nbsp;&lt;br&gt;&lt;b&gt;[Receive]&lt;/b&gt;&lt;br&gt;&lt;/span&gt;" style="edgeLabel;html=1;align=center;verticalAlign=middle;resizable=0;points=[];" vertex="1" connectable="0" parent="1">
          <mxGeometry x="2126.502339903524" y="759.997781293537" as="geometry" />
        </mxCell>
        <mxCell id="cntoVFhqolb4l-lRqXu5-188" value="" style="curved=1;endArrow=classic;html=1;rounded=0;entryX=0;entryY=0.5;entryDx=0;entryDy=0;exitX=0.5;exitY=1;exitDx=0;exitDy=0;" edge="1" parent="1" source="cntoVFhqolb4l-lRqXu5-126" target="cntoVFhqolb4l-lRqXu5-170">
          <mxGeometry width="50" height="50" relative="1" as="geometry">
            <mxPoint x="1450" y="520" as="sourcePoint" />
            <mxPoint x="1641" y="753" as="targetPoint" />
            <Array as="points">
              <mxPoint x="1600" y="630" />
            </Array>
          </mxGeometry>
        </mxCell>
        <mxCell id="cntoVFhqolb4l-lRqXu5-189" value="&lt;font style=&quot;font-size: 15px;&quot;&gt;&lt;span style=&quot;border-color: var(--border-color);&quot;&gt;ISR Receive&lt;br&gt;&lt;/span&gt;&lt;b style=&quot;border-color: var(--border-color);&quot;&gt;[Receive]&lt;/b&gt;&lt;br&gt;&lt;/font&gt;" style="edgeLabel;html=1;align=center;verticalAlign=middle;resizable=0;points=[];" vertex="1" connectable="0" parent="cntoVFhqolb4l-lRqXu5-188">
          <mxGeometry x="0.0533" y="5" relative="1" as="geometry">
            <mxPoint x="16" y="12" as="offset" />
          </mxGeometry>
        </mxCell>
        <mxCell id="cntoVFhqolb4l-lRqXu5-190" value="" style="curved=1;endArrow=classic;html=1;rounded=0;exitX=0.051;exitY=0.251;exitDx=0;exitDy=0;entryX=0;entryY=1;entryDx=0;entryDy=0;exitPerimeter=0;" edge="1" parent="1" source="cntoVFhqolb4l-lRqXu5-126">
          <mxGeometry width="50" height="50" relative="1" as="geometry">
            <mxPoint x="1385" y="450" as="sourcePoint" />
            <mxPoint x="1400" y="475" as="targetPoint" />
            <Array as="points">
              <mxPoint x="1260" y="400" />
              <mxPoint x="1250" y="550" />
            </Array>
          </mxGeometry>
        </mxCell>
        <mxCell id="cntoVFhqolb4l-lRqXu5-191" value="&lt;font style=&quot;font-size: 15px;&quot;&gt;eFinished&lt;br&gt;&lt;b style=&quot;border-color: var(--border-color);&quot;&gt;[Polling]&lt;/b&gt;&lt;br&gt;&lt;/font&gt;" style="edgeLabel;html=1;align=center;verticalAlign=middle;resizable=0;points=[];" vertex="1" connectable="0" parent="cntoVFhqolb4l-lRqXu5-190">
          <mxGeometry x="0.0533" y="5" relative="1" as="geometry">
            <mxPoint x="-4" y="-29" as="offset" />
          </mxGeometry>
        </mxCell>
        <mxCell id="cntoVFhqolb4l-lRqXu5-193" value="" style="curved=1;endArrow=classic;html=1;rounded=0;exitX=0;exitY=1;exitDx=0;exitDy=0;entryX=0.345;entryY=0.968;entryDx=0;entryDy=0;entryPerimeter=0;" edge="1" parent="1" source="cntoVFhqolb4l-lRqXu5-170" target="cntoVFhqolb4l-lRqXu5-170">
          <mxGeometry width="50" height="50" relative="1" as="geometry">
            <mxPoint x="1930" y="810" as="sourcePoint" />
            <mxPoint x="1940" y="1040" as="targetPoint" />
            <Array as="points">
              <mxPoint x="1780" y="850" />
              <mxPoint x="1790" y="980" />
              <mxPoint x="1930" y="940" />
            </Array>
          </mxGeometry>
        </mxCell>
        <mxCell id="cntoVFhqolb4l-lRqXu5-194" value="&lt;font style=&quot;font-size: 15px;&quot;&gt;&amp;nbsp;GUI Request&amp;nbsp;&lt;br&gt;&lt;b&gt;&amp;nbsp;ACK&amp;nbsp;&lt;/b&gt;&lt;br&gt;&lt;/font&gt;" style="edgeLabel;html=1;align=center;verticalAlign=middle;resizable=0;points=[];" vertex="1" connectable="0" parent="cntoVFhqolb4l-lRqXu5-193">
          <mxGeometry x="0.0533" y="5" relative="1" as="geometry">
            <mxPoint x="29" y="-12" as="offset" />
          </mxGeometry>
        </mxCell>
      </root>
    </mxGraphModel>
  </diagram>
</mxfile>
